<svg width="20" height="20" viewBox="0 0 20 20" fill="none" xmlns="http://www.w3.org/2000/svg">
<g clip-path="url(#clip0_315_1641)">
<path d="M9.99996 1.6665C8.35179 1.6665 6.74062 2.15525 5.37021 3.07092C3.9998 3.9866 2.9317 5.28809 2.30097 6.81081C1.67024 8.33353 1.50521 10.0091 1.82675 11.6256C2.1483 13.2421 2.94197 14.727 4.10741 15.8924C5.27284 17.0578 6.7577 17.8515 8.37421 18.173C9.99072 18.4946 11.6663 18.3296 13.189 17.6988C14.7117 17.0681 16.0132 16 16.9289 14.6296C17.8446 13.2592 18.3333 11.648 18.3333 9.99984C18.3333 8.90549 18.1178 7.82186 17.699 6.81081C17.2802 5.79976 16.6663 4.8811 15.8925 4.10728C15.1187 3.33346 14.2 2.71963 13.189 2.30084C12.1779 1.88205 11.0943 1.6665 9.99996 1.6665ZM9.99996 3.33317C10.5021 3.33645 11.0024 3.39514 11.4916 3.50817C11.3468 3.83516 11.1235 4.12139 10.8416 4.3415C10.6583 4.48317 10.4583 4.59984 10.2583 4.72484C9.62515 5.03657 9.09132 5.51846 8.71663 6.1165C8.30616 6.97198 8.12797 7.92039 8.19996 8.8665C8.19996 9.99984 8.19996 10.6665 7.4083 11.2582C6.26663 12.1498 4.52496 11.6498 3.44163 11.1998C3.37081 10.8037 3.33456 10.4022 3.3333 9.99984C3.3333 8.23173 4.03568 6.53603 5.28592 5.28579C6.53616 4.03555 8.23185 3.33317 9.99996 3.33317ZM4.16663 13.1665C4.71116 13.3081 5.27073 13.3836 5.8333 13.3915C6.77463 13.4174 7.69697 13.1237 8.44996 12.5582C9.87496 11.4415 9.87496 10.0082 9.87496 8.85817C9.81176 8.19257 9.91782 7.5218 10.1833 6.90817C10.4245 6.57977 10.7458 6.31868 11.1166 6.14984C11.3816 5.99501 11.6375 5.82529 11.8833 5.6415C12.4012 5.23244 12.8033 4.69529 13.05 4.08317C14.2224 4.68305 15.1909 5.61677 15.8333 6.7665C14.6416 6.93317 12.95 7.32484 12.6166 8.87484C12.5414 9.24517 12.5023 9.62194 12.5 9.99984C12.5269 10.4222 12.4437 10.8444 12.2583 11.2248L12.175 11.3665C11.6333 12.2665 11.025 13.2915 11.85 14.6998C11.95 14.8748 12.0583 15.0415 12.1666 15.2082C12.3884 15.4644 12.538 15.775 12.6 16.1082C11.7804 16.4694 10.8956 16.6594 9.99996 16.6665C8.80298 16.6605 7.62969 16.3324 6.60328 15.7165C5.57686 15.1007 4.73519 14.2199 4.16663 13.1665ZM14.1083 15.2665C13.9641 14.9337 13.7883 14.6156 13.5833 14.3165C13.4916 14.1832 13.4 14.0498 13.3166 13.9082C12.9916 13.3415 13.1083 13.0748 13.6333 12.2415L13.7166 12.0998C14.0432 11.4766 14.1985 10.7778 14.1666 10.0748C14.1658 9.79534 14.1909 9.51636 14.2416 9.2415C14.375 8.63317 15.6666 8.4665 16.4666 8.40817C16.79 9.66527 16.7364 10.9897 16.3126 12.2166C15.8888 13.4435 15.1136 14.5186 14.0833 15.3082L14.1083 15.2665Z" fill="#FAFAFA" stroke="#FAFAFA" stroke-width="0.00067"/>
</g>
<defs>
<clipPath id="clip0_315_1641">
<rect width="20" height="20" fill="white"/>
</clipPath>
</defs>
</svg>
